<?xml version="1.0" encoding="UTF-8"?>
<svg id="Vectors" xmlns="http://www.w3.org/2000/svg" viewBox="0 0 442.97 385.99">
  <defs>
    <style>
      .cls-1 {
        fill: #090909;
        stroke-width: 0px;
      }
    </style>
  </defs>
  <g id="ICON-DARK">
    <g>
      <path class="cls-1" d="M197.49,284.99v16.65H67.52c-3-5.15-5.35-10.73-7.52-16.63l137.48-.02Z"/>
      <path class="cls-1" d="M197.49,317.45v15.22c0,.78-.63,1.42-1.42,1.42h-71.81c-14.44,0-30.84-5.03-43.76-16.64,0,0,116.99,0,116.99,0Z"/>
      <path class="cls-1" d="M213.19,53.32v98.14c0,.6-.19,1.18-.54,1.67l-60.08,82.46c-.53.73-1.39,1.17-2.29,1.17H56.6c-.93,0-1.63-.89-1.37-1.79,2.2-7.86,5.85-15.12,10.63-21.49l104.24-137.85c14.89-18.45,34.03-22.61,41.48-23.7.85-.13,1.61.54,1.61,1.4Z"/>
      <path class="cls-1" d="M197.49,253.41v15.79H54.98c-.04-.13-1.97-5.32-2.15-15.19-.01-.8.62-1.45,1.42-1.45h142.39c.47,0,.85.38.85.85Z"/>
    </g>
    <g>
      <path class="cls-1" d="M383.13,285.01c-2.17,5.9-4.52,11.48-7.52,16.63h-129.96v-16.65s137.48.02,137.48.02Z"/>
      <path class="cls-1" d="M245.65,317.45v15.22c0,.78.63,1.42,1.42,1.42h71.81c14.44,0,30.84-5.03,43.76-16.64,0,0-116.99,0-116.99,0Z"/>
      <path class="cls-1" d="M229.95,53.32v98.14c0,.6.19,1.18.54,1.67l60.08,82.46c.53.73,1.39,1.17,2.29,1.17h93.67c.93,0,1.63-.89,1.37-1.79-2.2-7.86-5.85-15.12-10.63-21.49l-104.24-137.85c-14.89-18.45-34.03-22.61-41.48-23.7-.85-.13-1.61.54-1.61,1.4Z"/>
      <path class="cls-1" d="M245.65,253.98v15.22s142.51,0,142.51,0c.04-.13,1.97-5.32,2.15-15.19.01-.8-.62-1.45-1.42-1.45h-141.82c-.78,0-1.42.63-1.42,1.42Z"/>
    </g>
  </g>
</svg>